# xmcd
#
# Track frame offsets:
#	150
#	16052
#	33651
#	61616
#	84976
#	105180
#
# Disc length: 2467 seconds
#
# Revision: 1
# Processed by: cddbd v1.5.2PL0 Copyright (c) Steve Scherf et al.
# Submitted via: audiograbber 1.83.01
#
DISCID=3309a106
DTITLE=Geoff Wolf - In Remembrance
DYEAR=1997
DGENRE=
TTITLE0=Introduction
TTITLE1=The Aviator
TTITLE2=Phil on the hill
TTITLE3=Eva Magee
TTITLE4=Forty to four
TTITLE5=I'll be late
EXTD=
EXTT0=
EXTT1=
EXTT2=
EXTT3=
EXTT4=
EXTT5=
PLAYORDER=
